<svg width="14" height="14" viewBox="0 0 14 14" fill="none" xmlns="http://www.w3.org/2000/svg">
<path d="M6.05864 9.20824C6.02693 9.17793 5.89151 9.06364 5.78 8.95705C5.07909 8.33255 3.92605 6.69702 3.5707 5.83864C3.51367 5.70831 3.39246 5.37859 3.3832 5.20189C3.3816 5.03252 3.41907 4.87068 3.49669 4.71586C3.60536 4.52274 3.77777 4.36702 3.98226 4.28065C4.12419 4.22495 4.54967 4.13649 4.55725 4.13642C5.0228 4.04758 5.78012 3.99396 6.6175 3.98603C7.41534 3.97848 8.14266 4.01803 8.61671 4.08267C8.62437 4.09051 9.1549 4.16992 9.33722 4.26054C9.67031 4.42678 9.87927 4.75567 9.88262 5.10973L9.88291 5.14034C9.87697 5.371 9.67574 5.85787 9.66816 5.85794C9.32814 6.67647 8.26171 8.29502 7.54908 8.94821C7.54908 8.94821 7.3661 9.132 7.25148 9.21224C7.08691 9.33728 6.8822 9.40044 6.67692 9.40238C6.44781 9.40455 6.23375 9.33745 6.05864 9.20824Z" fill="#ADB3CC"/>
</svg>
